<?xml version="1.0" encoding="UTF-8" standalone="no"?>
<!-- Generator: Adobe Illustrator 16.0.0, SVG Export Plug-In . SVG Version: 6.00 Build 0)  -->

<svg
   xmlns:dc="http://purl.org/dc/elements/1.1/"
   xmlns:cc="http://creativecommons.org/ns#"
   xmlns:rdf="http://www.w3.org/1999/02/22-rdf-syntax-ns#"
   xmlns:svg="http://www.w3.org/2000/svg"
   xmlns="http://www.w3.org/2000/svg"
   xmlns:sodipodi="http://sodipodi.sourceforge.net/DTD/sodipodi-0.dtd"
   xmlns:inkscape="http://www.inkscape.org/namespaces/inkscape"
   version="1.1"
   id="Ebene_1"
   x="0px"
   y="0px"
   width="660px"
   height="577px"
   viewBox="0 0 660 577"
   enable-background="new 0 0 660 577"
   xml:space="preserve"
   inkscape:version="0.48.5 r10040"
   sodipodi:docname="background.svg"><metadata
     id="metadata9"><rdf:RDF><cc:Work
         rdf:about=""><dc:format>image/svg+xml</dc:format><dc:type
           rdf:resource="http://purl.org/dc/dcmitype/StillImage" /></cc:Work></rdf:RDF></metadata><defs
     id="defs7" /><sodipodi:namedview
     pagecolor="#ffffff"
     bordercolor="#666666"
     borderopacity="1"
     objecttolerance="10"
     gridtolerance="10"
     guidetolerance="10"
     inkscape:pageopacity="0"
     inkscape:pageshadow="2"
     inkscape:window-width="1054"
     inkscape:window-height="753"
     id="namedview5"
     showgrid="false"
     inkscape:zoom="0.81802426"
     inkscape:cx="422.87244"
     inkscape:cy="308.81428"
     inkscape:window-x="949"
     inkscape:window-y="154"
     inkscape:window-maximized="0"
     inkscape:current-layer="Ebene_1" /><path
     id="path3110"
     d="m 533.25001,455.73577 c -6.854,0 -12.426,5.572 -12.426,12.426 0,6.854 5.572,12.427 12.426,12.427 6.854,0 12.426,-5.572 12.426,-12.427 0,-6.854 -5.572,-12.426 -12.426,-12.426 z m -16.008,-7.759 -2.733,-4.919 2.376,-1.333 c 9.82,-6.112 22.803,-6.063 32.623,-0.057 l 2.418,1.461 -2.963,4.839 -2.381,-1.503 c -7.994,-4.861 -18.541,-4.924 -26.549,-0.063 l -0.311,0.188 -2.48,1.387 z m 40.992,38.8 -4.8,-2.963 1.46,-2.42 c 2.479,-4.006 3.76,-8.618 3.76,-13.343 0,-4.684 -1.329,-9.335 -3.816,-13.343 l 4.783,-3.026 -2.419,1.503 2.421,-1.501 c 3.044,4.965 4.672,10.605 4.672,16.367 0,5.76 -1.579,11.396 -4.6,16.306 l -1.461,2.42 z m -49.601,0.071 -1.637,-2.182 c -3.163,-5.1 -4.791,-10.741 -4.791,-16.502 0,-5.766 1.582,-11.449 4.609,-16.359 l 1.463,-2.379 4.838,2.927 -1.504,2.417 c -2.439,4.008 -3.766,8.663 -3.766,13.395 0,4.684 1.328,9.333 3.816,13.341 l 1.404,2.301 -4.432,3.041 z m 24.674,12.304 c -5.809,0 -11.454,-1.584 -16.367,-4.614 l -2.418,-1.505 2.968,-4.795 2.418,1.463 c 8.011,4.962 18.677,4.975 26.741,-0.005 l 2.363,-1.458 3.045,4.613 -2.672,1.759 c -4.677,2.913 -10.317,4.542 -16.078,4.542 z M 145.73094,88.998477 c -6.854,0 -12.426,5.572 -12.426,12.426003 0,6.854 5.572,12.427 12.426,12.427 6.854,0 12.426,-5.572 12.426,-12.427 0,-6.854003 -5.572,-12.426003 -12.426,-12.426003 z m -16.008,-7.759 -2.733,-4.919 2.376,-1.333 c 9.82,-6.112 22.803,-6.063 32.623,-0.057 l 2.418,1.461 -2.963,4.839 -2.381,-1.503 c -7.994,-4.861 -18.541,-4.924 -26.549,-0.063 l -0.311,0.188 -2.48,1.387 z m 40.992,38.800003 -4.8,-2.963 1.46,-2.42 c 2.479,-4.006 3.76,-8.618 3.76,-13.343 0,-4.684003 -1.329,-9.335003 -3.816,-13.343003 l 4.783,-3.026 -2.419,1.503 2.421,-1.501 c 3.044,4.965 4.672,10.605 4.672,16.367003 0,5.76 -1.579,11.396 -4.6,16.306 l -1.461,2.42 z m -49.601,0.071 -1.637,-2.182 c -3.163,-5.1 -4.791,-10.741 -4.791,-16.502 0,-5.766003 1.582,-11.449003 4.609,-16.359003 l 1.463,-2.379 4.838,2.927 -1.504,2.417 c -2.439,4.008 -3.766,8.663 -3.766,13.395003 0,4.684 1.328,9.333 3.816,13.341 l 1.404,2.301 -4.432,3.041 z m 24.674,12.304 c -5.809,0 -11.454,-1.584 -16.367,-4.614 l -2.418,-1.505 2.968,-4.795 2.418,1.463 c 8.011,4.962 18.677,4.975 26.741,-0.005 l 2.363,-1.458 3.045,4.613 -2.672,1.759 c -4.677,2.913 -10.317,4.542 -16.078,4.542 z m 448.58494,58.04798 c -6.854,0 -12.426,5.572 -12.426,12.426 0,6.854 5.572,12.427 12.426,12.427 6.854,0 12.426,-5.572 12.426,-12.427 0,-6.854 -5.572,-12.426 -12.426,-12.426 z m -16.008,-7.759 -2.733,-4.919 2.376,-1.333 c 9.82,-6.112 22.803,-6.063 32.623,-0.057 l 2.418,1.461 -2.963,4.839 -2.381,-1.503 c -7.994,-4.861 -18.541,-4.924 -26.549,-0.063 l -0.311,0.188 -2.48,1.387 z m 40.992,38.8 -4.8,-2.963 1.46,-2.42 c 2.479,-4.006 3.76,-8.618 3.76,-13.343 0,-4.684 -1.329,-9.335 -3.816,-13.343 l 4.783,-3.026 -2.419,1.503 2.421,-1.501 c 3.044,4.965 4.672,10.605 4.672,16.367 0,5.76 -1.579,11.396 -4.6,16.306 l -1.461,2.42 z m -49.601,0.071 -1.637,-2.182 c -3.163,-5.1 -4.791,-10.741 -4.791,-16.502 0,-5.766 1.582,-11.449 4.609,-16.359 l 1.463,-2.379 4.838,2.927 -1.504,2.417 c -2.439,4.008 -3.766,8.663 -3.766,13.395 0,4.684 1.328,9.333 3.816,13.341 l 1.404,2.301 -4.432,3.041 z m 24.674,12.304 c -5.809,0 -11.454,-1.584 -16.367,-4.614 l -2.418,-1.505 2.968,-4.795 2.418,1.463 c 8.011,4.962 18.677,4.975 26.741,-0.005 l 2.363,-1.458 3.045,4.613 -2.672,1.759 c -4.677,2.913 -10.317,4.542 -16.078,4.542 z M 325.625,498.975 l 0.297,0.288 0.496,-0.188 -0.01,0.099 0.307,0.595 -0.307,0.485 -0.386,-0.089 c 0,0.495 -0.297,0.981 -0.595,1.283 0.396,-0.104 0.792,0.193 1.233,0.104 -0.342,0.684 -1.233,0.595 -1.739,0.991 l 0.198,0.099 0.651,-0.297 0.251,0.089 c 0.486,-0.387 2.279,-0.347 2.972,-0.684 l -0.255,-0.298 0.553,-0.793 -0.308,-0.205 -0.485,0.106 c 0.146,-0.505 -0.108,-1.09 -0.701,-1.288 l -0.29,-0.704 -0.595,-0.485 0.595,-0.892 -0.307,-0.109 -0.684,0.109 0.386,-0.704 h -0.892 c -0.287,0.308 -0.595,0.604 -0.892,0.902 l 0.1,0.885 c 0.407,-0.003 0.595,0.394 0.407,0.701 z m -2.874,2.666 c 0.595,-0.287 1.189,-0.485 1.874,-0.684 l 0.307,-0.892 -0.1,-0.396 0.486,-0.208 -0.981,-0.64 c -0.496,0.441 -1.001,0.793 -1.596,1.046 l 0.153,0.495 -0.54,0.887 0.397,0.392 z m 11.786,-3.062 0.404,0.386 -0.1,0.109 c -0.406,0.684 0.584,-0.298 0.594,-0.396 l -0.505,-0.495 -0.394,0.344 v 0.052 z m 1.484,12.975 v -0.003 h -0.1 c 0.011,0 0.011,0 0.1,0.003 z m 24.086,42.033 c 0.002,-0.053 0.404,-0.46 0.404,-0.46 l 0.089,-0.501 c 0.505,-0.743 0.198,-2.319 -0.485,-2.874 -0.298,0.298 -0.793,0.853 -0.793,0.853 -1.199,2.126 -0.704,1.03 -2.389,2.23 -0.693,1.625 -0.585,0.489 -0.198,2.428 0.064,0.463 -0.474,1.189 -0.128,1.334 -2.451,1.875 -5.121,3.473 -7.964,4.757 0.185,-0.416 0.317,-0.808 0.372,-1.146 0.099,-0.842 2.963,-1.03 1.575,-3.072 0.011,-0.396 0.011,-0.892 -0.247,-1.188 0.445,-2.027 3.627,-1.576 4.172,-4.708 0.337,-1.922 -1.248,-3.914 -0.853,-5.599 -1.288,-2.864 7.046,-8.622 7.829,-13.379 0.308,-2.27 -4.36,1.982 -5.342,-0.981 l 0.1,-0.406 c -1.496,-0.892 -3.667,-3.26 -4.212,-4.942 -0.159,-0.506 -0.05,-1.1 -0.248,-1.694 -0.703,-2.27 -2.289,-4.252 -3.369,-6.343 0.298,-0.392 0.991,1.189 1.09,1.388 l 0.387,-0.1 v -0.892 l 3.419,6.441 c 0.645,1.189 1.843,1.979 2.429,3.278 0.307,0.792 0.099,1.685 0.445,2.467 l 0.853,0.506 c 1.585,-0.704 3.111,-1.487 4.757,-2.091 0.387,-0.188 0.287,-0.585 0.495,-0.838 0.396,-0.44 1.09,-0.242 1.576,-0.55 0.495,-0.297 0.208,-0.535 0.99,-0.738 l 0.793,-0.79 c -0.099,-0.293 -0.099,-0.64 0,-0.937 0.396,0.039 1.041,-0.893 1.041,-0.893 0.148,-1.196 -1.933,-1.595 -2.616,-3.279 -0.604,0.604 -1.289,1.348 -2.181,1.685 -0.892,-0.288 -4.162,-4.262 -2.686,-5.145 l 0.694,0.188 c 0.99,1.349 2.478,3.776 4.37,2.334 l 0.198,0.055 0.089,0.387 0.703,0.704 c 1.973,0.297 3.509,0.188 5.441,0.099 0.396,-0.01 0.604,0.783 0.792,0.991 0.308,0.099 1.05,0.78 1.05,0.78 0.017,0.467 0.036,0.932 0.036,1.402 0.002,11.477 -4.794,21.849 -12.478,29.239 z M 346.24,517.001 c -0.892,0 -1.496,-0.792 -2.478,-0.485 -0.595,-0.594 -0.208,-0.406 -1.188,-0.505 -0.506,-0.793 -1.982,-0.783 -2.28,0.201 0.298,0.294 0.189,0.701 0,0.995 l -0.505,0.2 c -0.743,-0.406 -2.279,-0.505 -2.378,-1.585 l -2.47,-0.545 -0.348,-0.555 -0.356,0.108 -0.188,-0.307 0.691,-0.488 c -0.107,-0.493 -0.446,-1.286 0,-1.683 -0.305,-0.01 -0.6,-0.208 -0.899,-0.297 -0.693,0.396 -1.239,0.585 -1.982,0.237 l -0.585,0.356 c -1.687,-0.594 -3.567,0.295 -4.865,1.282 l -0.496,-0.301 c -0.595,0.109 -1.081,0.298 -1.487,-0.287 l -0.297,-0.01 c -0.297,0.406 -0.584,0.895 -0.783,1.388 -1.1,0.594 -2.487,1.486 -1.992,2.982 -0.485,0.783 -1.188,1.378 -2.071,1.486 l -0.594,0.991 c -0.792,0.188 -1.497,2.666 -1.992,3.359 -0.892,1.289 1.199,3.377 -0.793,5.756 l 0.307,0.584 c -0.208,1.686 1.477,2.279 2.22,3.419 0.941,1.349 1.932,3.815 3.924,3.915 1.179,0.01 0.594,-1.135 3.755,-0.396 3.767,-1.883 2.686,-1.981 5.55,0.406 0.496,-0.01 0.893,-0.308 1.388,-0.308 0.396,0.209 0.644,0.694 0.803,1.091 -1.101,6.145 2.368,5.054 2.368,8.974 l -0.197,0.342 c 0,0.991 1.092,1.243 0.207,2.587 -0.297,0.535 -1.298,2.566 -1.094,3.161 1.084,3.082 2.078,6.193 3.168,9.275 0.231,0.654 0.514,1.305 0.775,1.96 -2.302,0.407 -4.666,0.632 -7.083,0.632 -9.85,0 -18.89,-3.529 -25.927,-9.386 0.427,-1.856 0.668,-4.258 0.549,-4.86 0.786,-1.288 1.585,-2.521 2.475,-3.711 0.002,-0.495 0.092,-2.434 -0.449,-2.631 -1.828,-0.694 -3.81,-2.279 -5.792,-1.973 -0.456,-0.901 -1.596,-1.388 -2.586,-1.397 -0.639,0.991 -1.685,1.496 -2.27,0.109 0.783,-0.901 1.387,-1.288 0.446,-2.379 -0.347,-2.388 -1.734,-2.576 -3.771,-2.774 -0.476,-0.043 -1.427,-1.201 -2.061,-1.771 -0.785,-3.146 -1.208,-6.433 -1.208,-9.818 0,-6.003 1.32,-11.699 3.668,-16.831 1.457,-0.676 3.697,-1.477 4.232,-1.714 l 0.595,0.198 c -0.01,0.396 -1.388,0.396 -1.784,0.902 l 0.089,0.396 c 0.595,0.099 5.758,-2.181 3.964,-2.19 -0.387,1.291 -3.271,1.397 -1.675,-1.388 -1.487,-0.684 -1.497,-0.089 -2.882,0.01 1.286,-2.08 9.224,-0.6 9.224,-3.468 0,-1.289 -2.18,-1.046 -2.091,-2.488 0.008,-0.809 -0.526,-1.776 -0.992,-2.542 2.975,-2.888 6.388,-5.322 10.131,-7.197 0.288,0.151 0.565,0.365 0.782,0.533 0,1.18 -3.082,1.576 -2.279,2.576 -0.892,1.884 1.08,4.45 3.062,4.45 l 0.496,-0.396 c 0.793,-2.071 2.983,-3.359 5.054,-3.756 0.991,-0.198 1.496,-1.101 2.478,-1.298 1.288,-0.387 2.884,-0.288 4.066,-0.893 0.105,-0.089 0.393,-0.198 0.294,-0.396 -0.139,-0.287 -0.396,-0.387 -0.595,-0.584 0.902,-0.649 1.101,1.675 1.893,0.188 0.199,-0.436 -0.197,-0.882 -0.498,-1.088 -0.096,0.003 -0.592,-0.002 -0.294,-0.2 0.386,-0.198 0.693,0.595 0.98,0.208 0.407,-0.604 0.892,-1.1 1.388,-1.783 -0.099,-0.496 0.1,-1.091 0.693,-1.001 0.01,-0.376 -0.742,-0.4 -0.347,-0.816 0.313,-0.007 0.624,-0.023 0.939,-0.023 7.94,0 15.351,2.301 21.614,6.259 -0.28,0.115 -0.561,0.256 -0.838,0.428 l -1.18,-0.089 0.595,-0.198 c -0.604,-0.208 -1.189,-0.595 -1.883,-0.506 l 0.585,0.451 -0.089,0.451 0.485,0.584 -0.089,0.209 c -0.258,-0.109 -0.595,-0.298 -0.893,-0.308 l -1.189,0.703 0.396,0.585 c -0.594,-0.099 -1.1,-0.238 -1.685,-0.396 l -0.198,0.208 0.297,0.298 c 0.09,0 0.794,0.198 0.486,0.387 -0.595,0 -1.289,-0.288 -1.734,-0.685 -0.237,-0.803 -0.535,-1.188 -1.328,-1.486 1.288,0.396 2.963,1.189 4.162,0.188 l -0.396,-0.64 c -1.397,-0.5 -2.883,-0.837 -4.36,-1.343 -0.208,-0.099 -0.506,0 -0.793,0.1 -0.099,0 -0.258,0.01 -0.208,0 0.893,-0.882 -2.368,-0.793 -2.765,-0.783 -1.883,0.287 -3.672,0.892 -5.354,1.784 h 0.693 v 0.485 c -0.398,0.604 -0.595,0.099 -1.189,1.397 -0.495,0.198 -1.298,1.378 -1.794,1.09 -0.684,0.396 -2.478,1.189 -1.972,2.181 0,0.287 0,0.733 0.297,0.793 -0.396,1.783 2.27,0.396 2.766,-0.199 0.495,0.783 0.594,1.428 1.199,2.171 -0.209,0.297 0,0.704 0.287,0.901 l 0.594,-0.197 -0.088,-0.298 c 0.386,-0.109 0.789,-0.203 1.191,-0.208 l 0.198,-0.783 -0.153,-0.693 c 0.539,-0.109 0.945,-0.693 1.145,-1.189 l -0.596,-0.297 -0.307,-0.893 c 0.604,-1.1 1.189,-1 1.982,-1.793 l -0.1,-0.198 0.308,-0.486 0.882,-0.198 c 2.289,-0.495 -0.981,1.774 -0.981,1.774 -0.297,0.208 0.188,0.703 0.188,1.1 -0.089,1.586 3.221,0.694 4.262,1.091 -0.396,0.188 -0.843,0.188 -1.189,0.386 -1.477,-0.29 -1.388,0.1 -2.676,0.496 l 0.198,0.398 1.09,-0.102 c 0.208,1.299 -0.387,1.09 -1.08,0.308 -0.753,0 -0.693,1.137 -0.604,1.675 -0.297,0.297 -1.278,0.793 -1.278,0.793 0.099,-0.741 -2.083,0.153 -2.381,0.208 l -0.595,-0.308 -1.199,0.396 -0.693,-0.637 0.208,-0.85 0.386,-0.387 -0.386,-0.198 0.188,-0.495 -0.387,-0.198 -0.208,0.392 c -1.333,0.193 -0.882,1.59 -0.387,2.373 -2.279,0.495 -2.388,0.901 -4.063,2.188 -0.01,0.498 -1.189,1.192 -1.596,1.192 l -0.484,-0.348 -0.209,0.139 0.1,0.704 c -0.396,0.089 -0.84,0 -1.189,-0.108 -0.387,0.101 -0.783,0.108 -0.64,0.604 0.946,0.198 1.433,0.387 1.928,1.289 1.299,2.673 -2.368,2.128 -3.469,2.125 l -0.287,-0.192 -1.189,0.445 c 0.684,0.146 -0.01,2.775 -0.396,3.171 0.495,-0.307 0.287,1.289 0.287,1.477 1.893,-0.584 1.487,0.803 2.082,0.794 0.703,-0.981 2.091,-0.198 3.071,-1.289 0.011,-0.396 0.209,-0.684 0.506,-0.892 l -0.109,-0.684 c 0.902,-1.001 0.693,-1.189 2.084,-1.784 0.404,-2.229 0.899,-0.308 2.386,-1.09 2.726,-1.388 3.37,2.371 5.345,2.676 l 0.108,0.882 -0.298,0.396 0.486,0.198 c 0.209,-0.288 0.198,-0.788 0.594,-0.882 l -0.396,-0.506 0.396,-0.488 c 0.199,0.191 0.496,0.151 0.596,0.488 l 0.208,-0.297 c -0.208,-0.496 -1.091,-0.783 -1.596,-0.981 l 0.05,-0.308 c -0.535,0.01 -0.944,-0.386 -1.33,-0.693 0.088,-0.585 -0.605,-0.783 -0.902,-1.08 v -0.803 c 0.307,-0.387 0.793,-0.1 0.99,0.297 0.496,0.109 0.406,0.694 1.094,1.001 0.742,0.396 1.645,0.595 2.091,1.383 l 0.089,0.996 c 0.396,0.287 0.892,0.738 0.803,1.278 0.496,0.297 0.198,0.693 0.198,0.693 l 0.05,0.1 0.436,0.208 0.149,0.594 0.347,0.05 0.495,0.149 0.099,-0.1 -0.287,-0.703 0.485,0.197 v -0.099 l -0.247,-0.396 0.099,-0.099 0.456,0.208 v -0.694 l -0.406,-0.297 -0.198,-0.406 -0.287,-0.099 -0.198,-0.496 c 0.287,-0.099 0.684,0.01 0.882,0.198 l 0.198,-0.485 0.406,0.188 0.287,-0.1 0.298,0.298 c 0.604,-0.396 1.09,-0.738 1.793,-0.585 l 0.188,-0.208 c -1.477,-0.348 -0.693,-2.666 0,-2.964 0,-0.901 0.951,-1.486 1.586,-0.604 1.299,0 2.577,-0.642 3.776,-1.08 l 0.287,0.198 c -0.298,0.198 -0.684,1.477 -2.171,1.378 -0.901,-0.1 -0.059,-0.981 -1.793,0 0.396,-0.09 0.803,0.198 0.693,0.604 l 0.307,0.099 c 1.189,-0.693 4.847,0.288 4.847,1.873 0,0.893 -1.576,0.646 -2.131,0.646 -1.03,0 -1.526,-0.934 -2.824,-0.834 -0.981,0.094 -0.981,0.892 -2.279,0.693 0.406,0.099 0.198,0.387 0.108,0.396 -0.505,0.396 -1.298,0.099 -1.893,0.396 -0.1,0.089 -0.684,0.387 -0.396,0.535 0,0.356 0.506,0.247 0.496,0.6 -0.694,-0.055 0.703,1.243 0.892,1.432 0.505,0 0.693,0.496 1.149,0.498 l 0.645,-0.498 c 0.595,0 1.08,0.595 1.675,0.595 0.495,0 0.208,-0.882 1.199,-0.389 l 0.287,-0.295 0.208,0.188 -0.208,0.297 c 0.308,3.28 0.1,3.523 -2.774,3.523 -0.486,0.005 -0.783,0.544 -1.279,0.544 z m 10.347,-11.188 c 0.347,-0.109 0.743,-0.298 0.941,-0.605 0.308,0 0.693,-0.197 0.991,-0.396 l 0.495,0.199 0.496,-0.09 0.108,0.1 v 0.793 l 0.198,0.297 -0.595,-0.1 -0.595,0.392 0.188,0.203 -0.545,0.1 c 0.803,0.595 0.645,1.18 1.744,1.477 -0.307,0.703 0.396,0.798 0.595,1.09 l -0.208,0.496 0.396,0.792 0.297,0.198 c 0.1,0.208 0.506,1.486 0.496,1.685 -2.369,0.506 -1.388,-0.188 -3.161,-0.584 l -0.258,-0.743 c 0.247,-0.456 0.148,-1.041 0.356,-1.489 -0.704,-0.642 -1.794,-1.444 -1.844,-2.529 l -0.545,-0.498 c 0.212,-0.104 0.35,-0.498 0.45,-0.788 z m -24.593,-26.117 c -24.661,0 -44.651,19.99 -44.651,44.651 0,24.663 19.988,44.651 44.651,44.651 24.662,0 44.651,-19.988 44.651,-44.651 0.001,-24.66 -19.989,-44.651 -44.651,-44.651 z M 139.61865,448.40102 c -6.854,0 -12.426,5.572 -12.426,12.426 0,6.854 5.572,12.427 12.426,12.427 6.854,0 12.426,-5.572 12.426,-12.427 0,-6.854 -5.572,-12.426 -12.426,-12.426 z m -16.008,-7.759 -2.733,-4.919 2.376,-1.333 c 9.82,-6.112 22.803,-6.063 32.623,-0.057 l 2.418,1.461 -2.963,4.839 -2.381,-1.503 c -7.994,-4.861 -18.541,-4.924 -26.549,-0.063 l -0.311,0.188 -2.48,1.387 z m 40.992,38.8 -4.8,-2.963 1.46,-2.42 c 2.479,-4.006 3.76,-8.618 3.76,-13.343 0,-4.684 -1.329,-9.335 -3.816,-13.343 l 4.783,-3.026 -2.419,1.503 2.421,-1.501 c 3.044,4.965 4.672,10.605 4.672,16.367 0,5.76 -1.579,11.396 -4.6,16.306 l -1.461,2.42 z m -49.601,0.071 -1.637,-2.182 c -3.163,-5.1 -4.791,-10.741 -4.791,-16.502 0,-5.766 1.582,-11.449 4.609,-16.359 l 1.463,-2.379 4.838,2.927 -1.504,2.417 c -2.439,4.008 -3.766,8.663 -3.766,13.395 0,4.684 1.328,9.333 3.816,13.341 l 1.404,2.301 -4.432,3.041 z m 24.674,12.304 c -5.809,0 -11.454,-1.584 -16.367,-4.614 l -2.418,-1.505 2.968,-4.795 2.418,1.463 c 8.011,4.962 18.677,4.975 26.741,-0.005 l 2.363,-1.458 3.045,4.613 -2.672,1.759 c -4.677,2.913 -10.317,4.542 -16.078,4.542 z M 634.495,341.081 c 0,-0.641 -0.531,-1.16 -1.165,-1.16 H 631 c -0.633,0 -1.161,0.52 -1.161,1.16 v 2.32 c 0,0.642 0.528,1.158 1.161,1.158 h 2.33 c 0.634,0 1.165,-0.517 1.165,-1.158 v -2.32 z m 0,5.799 c 0,-0.641 -0.531,-1.158 -1.165,-1.158 H 631 c -0.633,0 -1.161,0.518 -1.161,1.158 v 2.32 c 0,0.641 0.528,1.16 1.161,1.16 h 2.33 c 0.634,0 1.165,-0.52 1.165,-1.16 v -2.32 z m 0,5.798 c 0,-0.639 -0.531,-1.155 -1.165,-1.155 H 631 c -0.633,0 -1.161,0.517 -1.161,1.155 v 2.32 c 0,0.644 0.528,1.159 1.161,1.159 h 2.33 c 0.634,0 1.165,-0.516 1.165,-1.159 v -2.32 z m -5.796,-11.597 c 0,-0.641 -0.531,-1.16 -1.165,-1.16 h -2.33 c -0.634,0 -1.165,0.52 -1.165,1.16 v 2.32 c 0,0.642 0.531,1.158 1.165,1.158 h 2.33 c 0.634,0 1.165,-0.517 1.165,-1.158 v -2.32 z m 0,5.799 c 0,-0.641 -0.531,-1.158 -1.165,-1.158 h -2.33 c -0.634,0 -1.165,0.518 -1.165,1.158 v 2.32 c 0,0.641 0.531,1.16 1.165,1.16 h 2.33 c 0.634,0 1.165,-0.52 1.165,-1.16 v -2.32 z m 0,5.798 c 0,-0.639 -0.531,-1.155 -1.165,-1.155 h -2.33 c -0.634,0 -1.165,0.517 -1.165,1.155 v 2.32 c 0,0.644 0.531,1.159 1.165,1.159 h 2.33 c 0.634,0 1.165,-0.516 1.165,-1.159 v -2.32 z m -5.796,-11.597 c 0,-0.641 -0.532,-1.16 -1.166,-1.16 h -2.329 c -0.634,0 -1.165,0.52 -1.165,1.16 v 2.32 c 0,0.642 0.531,1.158 1.165,1.158 h 2.329 c 0.634,0 1.166,-0.517 1.166,-1.158 v -2.32 z m 0,5.799 c 0,-0.641 -0.532,-1.158 -1.166,-1.158 h -2.329 c -0.634,0 -1.165,0.518 -1.165,1.158 v 2.32 c 0,0.641 0.531,1.16 1.165,1.16 h 2.329 c 0.634,0 1.166,-0.52 1.166,-1.16 v -2.32 z m 0,5.798 c 0,-0.639 -0.532,-1.155 -1.166,-1.155 h -2.329 c -0.634,0 -1.165,0.517 -1.165,1.155 v 2.32 c 0,0.644 0.531,1.159 1.165,1.159 h 2.329 c 0.634,0 1.166,-0.516 1.166,-1.159 v -2.32 z m -4.119,-16.193 h 15.399 v -26.481 h -15.399 v 26.481 z m 19.281,-30.24 v 51.33 c 0,1.562 -1.275,2.843 -2.853,2.843 h -17.647 c -1.606,0 -2.896,-1.28 -2.896,-2.843 v -51.33 c 0,-1.574 1.289,-2.854 2.896,-2.854 h 17.647 c 1.578,0 2.853,1.28 2.853,2.854 z m 10.787,60.698 c 0,0.763 -0.627,1.393 -1.4,1.393 h -42.17 c -0.78,0 -1.395,-0.63 -1.395,-1.393 0,0 -1.166,-10.205 0,-13.312 0.592,-1.638 4.146,-4.905 4.911,-4.905 h 3.061 v 12.847 c 0,0.754 0.629,1.39 1.424,1.39 h 25.969 c 0.762,0 1.396,-0.636 1.396,-1.39 v -12.847 h 3.295 c 0.761,0 4.313,3.268 4.909,4.905 1.166,3.107 0,13.312 0,13.312 z M 529.02,61.007 c 0,0 -9.111,6.675 -16.737,11.86 v 15.259 c 0,1.876 1.516,3.392 3.392,3.392 h 10.168 V 77.955 h 6.783 v 13.563 h 10.168 c 1.875,0 3.391,-1.516 3.391,-3.392 V 72.867 C 538.768,67.682 529.02,61.007 529.02,61.007 z m -9.749,-20.511 c -15.406,0 -25.265,11.773 -22.428,26.968 -6.387,2.74 -10.93,9.697 -10.93,17.874 0,10.576 7.615,19.158 16.966,19.158 3.885,0 59.145,0 62.021,0 8.398,0 15.186,-7.663 15.186,-17.153 0,-9.454 -6.787,-17.12 -15.186,-17.12 -0.319,0 -0.654,-0.022 -1.056,-0.046 1.453,-13.497 -9.067,-22.546 -20.122,-22.546 -2.557,0 -5.01,0.566 -7.265,1.532 -3.807,-4.704 -9.508,-8.667 -17.186,-8.667 l 0,0 z m 0,3.767 c 6.92,0 11.573,3.954 14.259,7.27 l 1.792,2.214 2.619,-1.122 c 1.902,-0.814 3.848,-1.228 5.781,-1.228 4.704,0 9.363,2.061 12.464,5.514 2.158,2.403 4.589,6.584 3.913,12.862 l -0.423,3.929 3.944,0.235 0.104,0.006 c 0.396,0.023 0.771,0.046 1.176,0.046 6.296,0 11.419,5.99 11.419,13.353 0,7.381 -5.123,13.386 -11.419,13.386 h -62.02 c -7.278,0 -13.199,-6.904 -13.199,-15.391 0,-6.401 3.476,-12.193 8.648,-14.412 l 2.771,-1.189 -0.553,-2.964 c -1.159,-6.207 0.101,-11.91 3.546,-16.058 3.455,-4.16 8.845,-6.451 15.178,-6.451 M 347.238,75.83 c 1.842,-1.669 1.981,-4.515 0.313,-6.356 -5.309,-5.858 -12.411,-9.084 -20.001,-9.084 -0.001,0 -0.003,0 -0.004,0 -7.589,10e-4 -14.689,3.228 -19.994,9.085 -1.668,1.842 -1.527,4.688 0.315,6.356 1.843,1.669 4.688,1.528 6.356,-0.315 3.577,-3.95 8.309,-6.125 13.324,-6.126 10e-4,0 0.002,0 0.002,0 5.017,0 9.751,2.176 13.332,6.127 0.889,0.98 2.11,1.479 3.336,1.479 1.079,0 2.16,-0.385 3.021,-1.166 z m 16.671,-21.084 c 1.842,-1.669 1.98,-4.515 0.312,-6.356 -9.756,-10.759 -22.777,-16.684 -36.668,-16.684 -13.891,0 -26.913,5.925 -36.667,16.684 -1.669,1.841 -1.53,4.687 0.311,6.356 1.84,1.67 4.688,1.53 6.356,-0.311 8.027,-8.853 18.682,-13.729 30,-13.729 11.319,0 21.973,4.875 30,13.729 0.889,0.98 2.109,1.478 3.335,1.478 1.078,0 2.16,-0.386 3.021,-1.167 z m 13.643,-19.905 c -1.226,0 -2.446,-0.498 -3.335,-1.478 C 361.728,19.587 345.152,12 327.55,12 c -0.002,0 -0.002,0 -0.004,0 -17.602,10e-4 -34.171,7.588 -46.656,21.363 -1.669,1.842 -4.515,1.981 -6.356,0.312 -1.841,-1.669 -1.981,-4.515 -0.312,-6.356 C 288.433,11.638 307.371,3.001 327.545,3 c 10e-4,0 0.004,0 0.005,0 20.176,0 39.116,8.636 53.335,24.319 1.669,1.841 1.529,4.687 -0.312,6.356 -0.861,0.781 -1.943,1.166 -3.021,1.166 z M 22.163,215.65 v -10.233 c 0,-0.942 0.763,-1.706 1.706,-1.706 h 23.876 c 0.946,0 1.706,0.763 1.706,1.706 v 10.233 c 0,0.943 -0.76,1.706 -1.706,1.706 H 23.869 c -0.943,0 -1.706,-0.763 -1.706,-1.706 z m 0,-27.287 c 0,-0.942 0.763,-1.705 1.706,-1.705 h 23.876 c 0.946,0 1.706,0.763 1.706,1.705 v 10.233 c 0,0.943 -0.76,1.706 -1.706,1.706 H 23.869 c -0.943,0 -1.706,-0.763 -1.706,-1.706 v -10.233 z m 13.644,-16.842 c 2.824,0 5.116,2.292 5.116,5.116 0,2.824 -2.292,5.117 -5.116,5.117 -2.825,0 -5.117,-2.292 -5.117,-5.117 0,-2.825 2.292,-5.116 5.117,-5.116 z m 13.744,53.856 c 3.714,0 6.722,-2.985 6.722,-6.662 v -44.661 c 0,-3.681 -3.007,-6.664 -6.722,-6.664 H 22.062 c -3.71,0 -6.72,2.983 -6.72,6.664 v 44.661 c 0,3.677 3.01,6.662 6.72,6.662 h 10.334 v 5.195 H 15.341 v 6.822 h 17.055 6.822 17.054 v -6.822 H 39.218 v -5.195 h 10.333 z m -9.644,105.905 v 2.65 c 3.398,1.57 5.773,4.986 5.773,8.967 0,5.457 -4.44,9.896 -9.897,9.896 -5.457,0 -9.897,-4.439 -9.897,-9.896 0,-3.98 2.377,-7.396 5.773,-8.967 v -2.65 c -4.798,1.704 -8.251,6.237 -8.251,11.617 0,6.836 5.54,12.374 12.375,12.374 6.836,0 12.375,-5.538 12.375,-12.374 0,-5.379 -3.453,-9.913 -8.251,-11.617 z m -2.749,7.878 h -2.75 v -13.75 h 2.75 v 13.75 z M 11.033,330.602 V 359.4 c 0,1.517 1.233,2.75 2.75,2.75 h 44 c 1.517,0 2.75,-1.233 2.75,-2.75 v -28.817 c -9.452,-6.605 -20.892,-14.466 -25.045,-17.314 -3.983,2.896 -14.816,10.736 -24.455,17.333 z m 46.75,37.047 h -44 c -4.549,0 -8.25,-3.701 -8.25,-8.25 v -31.705 l 1.203,-0.818 c 12.192,-8.298 26.931,-19.087 27.079,-19.195 l 1.571,-1.151 1.607,1.102 c 0.158,0.108 15.962,10.932 27.867,19.266 l 1.173,0.821 v 31.682 c 0,4.547 -3.701,8.248 -8.25,8.248 z"
     style="fill:#e6e6e6;fill-opacity:1" /></svg>